<?xml version="1.0" encoding="utf-8"?>
<!-- Generator: Adobe Illustrator 23.0.5, SVG Export Plug-In . SVG Version: 6.00 Build 0)  -->
<svg version="1.1" id="Warstwa_1" xmlns="http://www.w3.org/2000/svg" xmlns:xlink="http://www.w3.org/1999/xlink" x="0px" y="0px"
	 viewBox="0 0 707.1 200" style="enable-background:new 0 0 707.1 200;" xml:space="preserve">
<style type="text/css">
	.st0{fill:#E81021;}
</style>
<g>
	<path d="M5.5,81l14.8-14c4,4.9,7.8,7.7,12.9,7.7c5.8,0,9.5-3.9,9.5-11.6V10.8h22.8v52.5c0,10.4-2.6,17.7-8.2,23.3
		C51.8,92,44,95,34.6,95C20.1,95,11.3,89,5.5,81z"/>
	<path d="M93.4,57.2V10.8h23.3v46c0,11.9,6,17.6,15.3,17.6s15.3-5.4,15.3-17V10.8h23.3v45.9c0,26.7-15.3,38.4-38.8,38.4
		S93.4,83.2,93.4,57.2z"/>
	<path d="M199.5,10.8h42.5c10.4,0,17.7,2.6,22.6,7.5c3.3,3.3,5.3,7.7,5.3,13.4v0.2c0,9.6-5.4,15.3-12.8,18.5
		c10.1,3.3,16.4,9,16.4,20.2v0.2c0,14.2-11.6,22.8-31.3,22.8h-42.7V10.8z M236.3,43.8c7,0,10.9-2.4,10.9-7.2v-0.2
		c0-4.5-3.5-7.1-10.4-7.1h-14.9v14.6H236.3z M239.6,75.1c7,0,11-2.7,11-7.6v-0.2c0-4.5-3.5-7.5-11.2-7.5h-17.5v15.3H239.6z"/>
	<path d="M296.6,52.4v-0.2c0-23.8,19.2-43.1,44.7-43.1s44.5,19,44.5,42.8v0.2c0,23.8-19.2,43.1-44.7,43.1
		C315.5,95.2,296.6,76.2,296.6,52.4z M362.4,52.4v-0.2c0-11.9-8.6-22.4-21.3-22.4c-12.5,0-20.9,10.2-20.9,22.1v0.2
		c0,11.9,8.6,22.4,21.2,22.4C354,74.5,362.4,64.3,362.4,52.4z"/>
	<path d="M413.1,10.8h39.2c12.7,0,21.4,3.3,27,9c4.9,4.7,7.3,11.1,7.3,19.3v0.2c0,12.7-6.7,21.1-17,25.4l19.8,28.9h-26.5l-16.7-25.1
		h-0.2h-9.8v25.1h-23V10.8z M451.2,50.5c7.8,0,12.3-3.8,12.3-9.8v-0.2c0-6.5-4.7-9.8-12.4-9.8h-15v19.9H451.2z"/>
	<path d="M540.8,10.2h22.1l35.3,83.4h-24.6l-6-14.8h-31.9l-5.9,14.8h-24.1L540.8,10.2z M560.9,60.9l-9.2-23.5l-9.3,23.5H560.9z"/>
	<path d="M614.7,81l14.8-14c4,4.9,7.8,7.7,12.9,7.7c5.8,0,9.5-3.9,9.5-11.6V10.8h22.8v52.5c0,10.4-2.6,17.7-8.2,23.3
		c-5.4,5.4-13.3,8.4-22.7,8.4C629.4,95,620.5,89,614.7,81z"/>
	<path class="st0" d="M6.1,182.2L18.8,167c8.2,6.5,17.3,9.9,26.9,9.9c6.2,0,9.5-2.1,9.5-5.7V171c0-3.4-2.7-5.3-14-7.9
		c-17.6-4-31.2-9-31.2-26v-0.2c0-15.4,12.2-26.5,32.1-26.5c14.1,0,25.1,3.8,34.1,11l-11.5,16.2c-7.6-5.3-15.9-8.2-23.2-8.2
		c-5.6,0-8.3,2.4-8.3,5.3v0.2c0,3.8,2.8,5.4,14.3,8c19,4.1,30.9,10.3,30.9,25.8v0.2c0,16.9-13.4,27-33.5,27
		C30.2,196,16.2,191.3,6.1,182.2z"/>
	<path class="st0" d="M155.4,111.1h22.1l35.3,83.4h-24.6l-6-14.8h-31.9l-5.9,14.8h-24.1L155.4,111.1z M175.5,161.9l-9.2-23.5
		l-9.3,23.5H175.5z"/>
	<path class="st0" d="M259.8,111.7H299c12.7,0,21.4,3.3,27,9c4.9,4.7,7.3,11.1,7.3,19.3v0.2c0,12.7-6.7,21.1-17,25.4l19.8,28.9
		h-26.5l-16.7-25.1h-0.2h-9.8v25.1h-23V111.7z M297.9,151.5c7.8,0,12.3-3.8,12.3-9.8v-0.2c0-6.5-4.7-9.8-12.4-9.8h-15v19.9H297.9z"
		/>
	<path class="st0" d="M383.9,111.7h23v33.6l28.5-33.6h27.2l-31.3,35.6l32.4,47.2h-27.6l-20.8-30.8l-8.4,9.3v21.4h-23V111.7z"/>
	<path class="st0" d="M509.3,111.7h66.6v19.5H532v12.5h39.7v18.1H532V175h44.5v19.5h-67.2V111.7z"/>
	<path class="st0" d="M627.2,111.7h39.2c12.7,0,21.4,3.3,27,9c4.9,4.7,7.3,11.1,7.3,19.3v0.2c0,12.7-6.7,21.1-17,25.4l19.8,28.9
		h-26.5l-16.7-25.1H660h-9.8v25.1h-23V111.7z M665.3,151.5c7.8,0,12.3-3.8,12.3-9.8v-0.2c0-6.5-4.7-9.8-12.4-9.8h-15v19.9H665.3z"/>
</g>
</svg>
