<?xml version="1.0" encoding="utf-8"?>
<!-- Generator: Adobe Illustrator 23.0.5, SVG Export Plug-In . SVG Version: 6.00 Build 0)  -->
<svg version="1.1" id="Warstwa_1" xmlns="http://www.w3.org/2000/svg" xmlns:xlink="http://www.w3.org/1999/xlink" x="0px" y="0px"
	 viewBox="0 0 173.2 200" style="enable-background:new 0 0 173.2 200;" xml:space="preserve">
<style type="text/css">
	.st0{fill:#E81021;}
</style>
<g>
	<path d="M2.5,132.3l17.8-16.8c4.8,5.8,9.4,9.3,15.5,9.3c7,0,11.4-4.7,11.4-14V47.8h27.5V111c0,12.5-3.1,21.4-9.8,28
		c-6.5,6.5-15.9,10.1-27.3,10.1C20.1,149.1,9.5,141.9,2.5,132.3z"/>
	<path class="st0" d="M82.4,134.3L97.8,116c9.8,7.8,20.8,12,32.3,12c7.4,0,11.4-2.6,11.4-6.8v-0.3c0-4.1-3.3-6.4-16.8-9.5
		c-21.2-4.8-37.6-10.8-37.6-31.3v-0.3c0-18.5,14.7-31.9,38.6-31.9c16.9,0,30.2,4.6,41,13.2l-13.8,19.5c-9.1-6.4-19.1-9.8-27.9-9.8
		c-6.7,0-10,2.8-10,6.4v0.3c0,4.6,3.4,6.5,17.2,9.7c22.9,5,37.2,12.4,37.2,31v0.3c0,20.4-16.1,32.5-40.3,32.5
		C111.5,150.9,94.7,145.3,82.4,134.3z"/>
</g>
</svg>
